<svg id="Layer_1" data-name="Layer 1" xmlns="http://www.w3.org/2000/svg" viewBox="0 0 526 74"><defs><style>.cls-1{fill:#522d5b;}.cls-2{fill:#ff6363;}</style></defs><path class="cls-1" d="M88.86,40.49h-3V54.06H79.37V19.94H89.7c7.39,0,12.44,3.9,12.44,10.21C102.14,37.48,95.05,40.49,88.86,40.49Zm.9-14.9h-3.9V35h3.48c2.65,0,5.89-1.2,5.89-4.87C95.23,27.09,93.49,25.59,89.76,25.59Z"/><path class="cls-2" d="M492.12,23.4l21.13,11.65V39L492.12,50.6V44.39l14-7.36-14-7.36Z"/><path class="cls-2" d="M33.88,50.6,12.75,39v-3.9L33.88,23.4v6.21L19.88,37l14,7.36Z"/><path class="cls-1" d="M42,54.06V19.94h6.5V54.06Z"/><path class="cls-1" d="M352.9,54.06H347l-7.59-21.12h5.87l4.69,14.36,4.69-14.36h5.87Z"/><path class="cls-1" d="M66.9,54.06H61L53.38,32.94h5.87L63.94,47.3l4.69-14.36H74.5Z"/><path class="cls-2" d="M110.25,34.56V29.69H133v4.87Zm0,9.75V39.44H133v4.87Z"/><path class="cls-2" d="M147.63,19.94l-1.5,8.88a3,3,0,0,1-1,1.82,3,3,0,0,1-2,.67h-2V19.94Zm9.75,0-1.5,8.88a3,3,0,0,1-1,1.82,3,3,0,0,1-2,.67h-2V19.94Z"/><path class="cls-2" d="M458,19.94l-1.5,8.88a3,3,0,0,1-1,1.82,3.09,3.09,0,0,1-2.05.67h-2V19.94Zm9.75,0-1.5,8.88a3,3,0,0,1-1,1.82,3.09,3.09,0,0,1-2.05.67h-2V19.94Z"/><path class="cls-1" d="M193.3,44.75l9.33-24.81h6.75l-13.5,34.12h-4.16l-4.28-10.87-4.28,10.87H179L165.5,19.94h6.75l9.32,24.81,3.05-8-6.68-16.82h6.15l3.35,9.31,3.34-9.31h6.16l-6.69,16.82Z"/><path class="cls-1" d="M213.82,44.3a6.67,6.67,0,0,0,6.49,4.91,18.23,18.23,0,0,0,7.58-1.82v4.79c-.67.37-3,1.88-8.19,1.88-5.94,0-11.95-4.24-11.95-11.34a11.22,11.22,0,0,1,10.92-11.41c5.52,0,9.52,4.19,9.52,10.13V44.3Zm4.91-8.25A4.94,4.94,0,0,0,214,40.47h8.73A4.19,4.19,0,0,0,218.73,36.05Z"/><path class="cls-1" d="M301.57,44.3a6.67,6.67,0,0,0,6.49,4.91,18.23,18.23,0,0,0,7.58-1.82v4.79c-.67.37-3,1.88-8.19,1.88-5.94,0-11.95-4.24-11.95-11.34a11.22,11.22,0,0,1,10.92-11.41c5.52,0,9.52,4.19,9.52,10.13V44.3Zm4.91-8.25a4.94,4.94,0,0,0-4.73,4.42h8.73A4.19,4.19,0,0,0,306.48,36.05Z"/><path class="cls-1" d="M407.19,44.29a6.69,6.69,0,0,0,6.49,4.92,18.24,18.24,0,0,0,7.59-1.82v4.79c-.67.36-3,1.88-8.19,1.88-5.95,0-11.95-4.25-11.95-11.34A11.22,11.22,0,0,1,412,31.31c5.53,0,9.53,4.19,9.53,10.13v2.85ZM412.11,36c-2.55,0-4.31,2-4.74,4.43h8.74C416.11,38.41,414.71,36,412.11,36Z"/><path class="cls-1" d="M246.39,54.06A12,12,0,0,1,239.55,52l-.39,1.41h-5.41V19.94h6.52V33.61A12.4,12.4,0,0,1,246.39,32c6.46,0,10.11,4.6,10.11,10.73S252.85,54.06,246.39,54.06ZM244.06,37a5.46,5.46,0,0,0-3.81,1.63v9a5.55,5.55,0,0,0,3.81,1.49,6,6,0,1,0,0-12.08Z"/><path class="cls-1" d="M279.31,54.06a21,21,0,0,1-9.81-2.77v-6c1.39.74,5.82,3.23,9.7,3.23,3.66,0,5.44-1.87,5.44-3.62,0-1.59-1.61-2.78-3.27-3.86l-5.11-3.17c-3.16-2-6.37-4.25-6.37-9.19,0-5.61,4.77-8.78,10.31-8.78a19.16,19.16,0,0,1,8.8,2.4v5.72c-1.33-.68-5.36-2.74-8.8-2.74-2.83,0-4.32,1.7-4.32,3.4s1.66,2.84,3.32,3.86l5.1,3.23c2.28,1.42,6.33,4,6.33,9C290.63,50.66,285.52,54.06,279.31,54.06Z"/><path class="cls-1" d="M332.5,36.75a6.89,6.89,0,0,0-4.75,2.06V54.06H321.5V32h5.94l.31,2.31a6.63,6.63,0,0,1,5.56-3,11.47,11.47,0,0,1,2.69.32v5.62A12.76,12.76,0,0,0,332.5,36.75Z"/><path class="cls-1" d="M368.66,29.69l-4.91-4.92,4.84-4.83,4.91,4.91Zm-3.28,24.37V32.94h6.5V54.06Z"/><path class="cls-1" d="M388.6,54.06c-6.62,0-11.85-4.68-11.85-11.31s5.11-11.44,11.85-11.44a16.39,16.39,0,0,1,7.65,2.1v5.17a14.8,14.8,0,0,0-6.63-2c-4.21,0-6.86,2.55-6.86,6.08s2.71,6,6.86,6a15.45,15.45,0,0,0,6.63-2V52A14.4,14.4,0,0,1,388.6,54.06Z"/><path class="cls-1" d="M433.88,53.87a16.75,16.75,0,0,1-6.58-1.4V47.28c.93.41,4.14,1.87,6.47,1.87,1.69,0,2.56-.59,2.56-1.46,0-.64-.47-1.16-2.1-2-3-1.51-7.1-3.26-7.1-7.28,0-4.2,3.49-6.41,7.57-6.41a17.12,17.12,0,0,1,6.41,1.45v4.84A15.9,15.9,0,0,0,435,36.68c-1.63,0-2.5.58-2.5,1.4s.64,1.22,2,1.86c3.38,1.63,7.28,3.21,7.28,7.46S437.85,53.87,433.88,53.87Z"/><path class="cls-2" d="M471,54.06h-4.87l16.25-34.12h4.87Z"/></svg>