<svg width="360" height="141" viewBox="0 0 360 141" fill="none" xmlns="http://www.w3.org/2000/svg">
<path d="M323.3 136.4L322 136.9C316.9 138.9 302.1 140.4 292.6 140.4C283.7 140.4 271.9 137.1 265 127.9C262.4 124.3 259.8 118.8 259.8 110.9H250.8L243.9 138.5H220.5L228.7 110.9H221.3L203.5 138.5H184.7L183 110.9H174.7L166.5 138.5H146.5L155 110.9H108V110.5L99.6 138.6H78.3L86.6 110.9H60.6L73.5 138.6H48.9L37.7 110.9H31C26.8 124.5 23.5 135.5 23.3 136.3L22.9 138.5H0L21 68.7V0H99.6V67.9L102.6 57.9H108V0H186.4V57.9H194.8V0H273.2V73.3C275.8 69.7 278.7 66.8 281.6 64.6V0.199997H360V111H330.4L323.3 136.4ZM281.7 110.9C281.7 114.5 282.4 117.5 284 119.5C286.2 122.5 290.2 124 295.8 124C302 124 304.4 123.3 305.2 123L309.1 110.9H281.7Z" fill="#00519A"/>
<path d="M139.9 83.4C137.4 91 133.9 94.9 122.6 95.2C118.9 95.2 114.8 95.2 109.2 95.2L116.1 71.6C133 71.6 144.3 70.2 139.9 83.4ZM43.2 60.8H26.2L3.70001 135.7H20.5C20.9 134.2 43.2 60.8 43.2 60.8ZM87.3 60.8H66.7L33.9 93.9L50.8 135.7H69.1L50.2 95.4L87.3 60.8ZM155.4 83.4C159.7 60.3 141.1 60.6 123.8 60.8H104.7L82 135.8H97.4L106.2 106.2H118.5C142.6 106.2 153.2 95.5 155.4 83.4ZM260.4 60.8H235.8C205.9 102.3 198.6 125.6 198.6 125.6C201.5 99.2 197.7 60.8 197.7 60.8H173.3L150.4 135.7H164.5L183.5 71.6L187.4 135.7H202L243.4 71.6L224.4 135.7H241.7L260.4 60.8ZM309.2 59.2C294.1 59.2 275.4 62.6 264.7 98C255.7 127.6 277.5 137.7 292.7 137.7C302.7 137.7 316.8 136 321 134.3L331.6 96.5H299.8L296.3 107.8H313L307.8 124.2C307.8 124.2 308.5 126.8 295.9 126.8C280 126.8 275.6 115.8 280.8 97.6C285.6 80.7 293.4 69.4 307.7 70.1C317.4 70.5 322.9 74.2 320.2 83.1C320.1 83.7 320 84.5 319.7 85H335.1C339 73.5 331.2 59.2 309.2 59.2Z" fill="white"/>
</svg>
