<?xml version="1.0" encoding="UTF-8" standalone="no"?>
<!-- Created with Inkscape (http://www.inkscape.org/) -->

<svg
   xmlns:dc="http://purl.org/dc/elements/1.1/"
   xmlns:cc="http://creativecommons.org/ns#"
   xmlns:rdf="http://www.w3.org/1999/02/22-rdf-syntax-ns#"
   xmlns:svg="http://www.w3.org/2000/svg"
   xmlns="http://www.w3.org/2000/svg"
   version="1.1"
   width="120.4725"
   height="48.331249"
   id="svg53615"
   xml:space="preserve"><metadata
     id="metadata53621"><rdf:RDF><cc:Work
         rdf:about=""><dc:format>image/svg+xml</dc:format><dc:type
           rdf:resource="http://purl.org/dc/dcmitype/StillImage" /><dc:title></dc:title></cc:Work></rdf:RDF></metadata><defs
     id="defs53619"><clipPath
       id="clipPath53641"><path
         d="m 0,0 841.89,0 0,595.276 L 0,595.276 0,0 z"
         id="path53643" /></clipPath><clipPath
       id="clipPath53641-3"><path
         d="m 0,0 841.89,0 0,595.276 L 0,595.276 0,0 z"
         id="path53643-5" /></clipPath></defs><g
     transform="matrix(1.25,0,0,-1.25,-980.23554,695.7429)"
     id="g53623"><g
       id="g53835"><path
         d="m 880.56643,517.92932 -96.378,0 0,38.665 96.378,0 0,-38.665 z"
         id="path53635"
         style="fill:#000000;fill-opacity:1;fill-rule:nonzero;stroke:none" /><g
         transform="translate(143.55843,-24.508684)"
         id="g53637"><g
           clip-path="url(#clipPath53641-3)"
           id="g53639"><g
             transform="translate(716.2599,568.5559)"
             id="g53645"><path
               d="m 0,0 c 0.1,-1.115 -0.837,-2.748 -1.435,-3.086 l -0.398,0.318 c 0.577,0.647 0.507,2.584 0,3.108 l 0.018,0.058 c 0.44,0 1.118,-0.136 1.398,-0.218 C -0.151,0.101 -0.14,0.079 0,0"
               id="path53647"
               style="fill:#ffffff;fill-opacity:1;fill-rule:nonzero;stroke:none" /></g><g
             transform="translate(724.1661,558.7766)"
             id="g53649"><path
               d="m 0,0 c 0,-2.15 -1.575,-3.705 -4.261,-3.705 -1.052,0 -2.49,0.219 -3.128,0.537 0,0 -0.059,0.091 -0.059,0.459 0,0.916 0.083,2.344 0.099,2.609 l 0.437,0 c 0.061,-0.279 0.137,-0.683 0.261,-1.115 0.354,-1.231 1.394,-1.693 2.569,-1.693 1.4,0 2.35,0.702 2.35,2.071 0,1.017 -0.677,1.597 -1.893,2.528 l -0.775,0.6 c -1.578,1.213 -2.69,2.398 -2.69,4.082 0,1.883 1.508,3.367 4.025,3.367 1.033,0 2.129,-0.201 2.527,-0.299 0.151,-0.037 0.24,-0.062 0.24,-0.179 0,-0.217 -0.08,-1.19 -0.08,-2.491 l -0.417,0 c -0.407,1.424 -0.676,2.192 -2.448,2.192 -1.419,0 -2.195,-0.865 -2.195,-1.832 0,-0.834 0.702,-1.671 1.993,-2.63 L -2.667,3.924 C -0.785,2.521 0,1.633 0,0"
               id="path53651"
               style="fill:#ffffff;fill-opacity:1;fill-rule:nonzero;stroke:none" /></g><g
             transform="translate(695.1036,561.2668)"
             id="g53653"><path
               d="m 0,0 c -0.249,-0.601 -0.258,-1.125 -0.258,-1.674 l 0,-1.355 c 0,-0.265 -0.011,-0.874 0.039,-1.573 0.036,-0.482 0.197,-0.85 0.697,-0.917 0.233,-0.032 0.804,-0.059 1.038,-0.059 l 0,-0.418 -5.598,0 0,0.418 c 0.232,0 0.904,0.027 1.054,0.059 0.178,0.037 0.562,0.113 0.618,0.917 0.049,0.699 0.06,1.308 0.06,1.573 l 0,1.355 c 0,0.9 -0.164,1.269 -0.379,1.752 -0.119,0.266 -2.36,4.293 -2.946,5.161 -0.418,0.616 -0.817,0.974 -1.135,1.154 -0.217,0.121 -0.727,0.218 -0.957,0.218 l 0,0.401 3.486,0 c 0,0 0.064,-0.223 0.555,-1.256 0.24,-0.498 2.505,-4.752 2.771,-5.219 0,0 2.343,4.451 3.405,6.475 l 2.511,0 0,-0.401 C 4.162,6.584 3.716,6.322 3.168,5.656 2.62,4.988 0.301,0.716 0,0"
               id="path53655"
               style="fill:#ffffff;fill-opacity:1;fill-rule:nonzero;stroke:none" /></g><g
             transform="translate(672.9347,558.0793)"
             id="g53657"><path
               d="m 0,0 c 0,0 -0.385,-1.908 -0.518,-2.391 -0.101,-0.367 -0.159,-0.418 -0.159,-0.418 l -8.925,0 0,0.418 c 0.252,0 0.806,0.049 0.957,0.08 0.333,0.068 0.477,0.312 0.537,0.797 0.074,0.578 0.08,2.012 0.08,3.545 l 0,3.348 c 0,2.531 -0.007,2.889 -0.039,3.426 -0.035,0.566 -0.149,0.836 -0.697,0.955 -0.135,0.029 -0.581,0.039 -0.797,0.039 l 0,0.4 3.644,0 0,-1.394 c 0,0 -0.02,-0.895 -0.02,-3.426 l 0,-3.348 c 0,-2.316 -0.009,-3.283 0.34,-3.586 0.286,-0.245 1.011,-0.357 2.31,-0.357 1.184,0 1.594,0.057 1.992,0.457 0.339,0.34 0.505,0.713 0.697,1.455 L 0,0 z"
               id="path53659"
               style="fill:#ffffff;fill-opacity:1;fill-rule:nonzero;stroke:none" /></g><g
             transform="translate(662.4771,558.0793)"
             id="g53661"><path
               d="m 0,0 c 0,0 -0.385,-1.908 -0.518,-2.391 -0.1,-0.367 -0.159,-0.418 -0.159,-0.418 l -8.923,0 0,0.418 c 0.25,0 0.805,0.049 0.957,0.08 0.333,0.068 0.475,0.312 0.536,0.797 0.074,0.578 0.08,2.012 0.08,3.545 l 0,3.348 c 0,2.531 -0.008,2.889 -0.041,3.426 -0.033,0.566 -0.148,0.836 -0.695,0.955 -0.135,0.029 -0.582,0.039 -0.797,0.039 l 0,0.4 3.645,0 0,-1.394 c 0,0 -0.02,-0.895 -0.02,-3.426 l 0,-3.348 c 0,-2.316 -0.01,-3.283 0.338,-3.586 0.286,-0.245 1.01,-0.357 2.31,-0.357 1.183,0 1.592,0.057 1.992,0.457 0.34,0.34 0.506,0.713 0.697,1.455 L 0,0 z"
               id="path53663"
               style="fill:#ffffff;fill-opacity:1;fill-rule:nonzero;stroke:none" /></g><g
             transform="translate(687.1378,562.0828)"
             id="g53665"><path
               d="m 0,0 c 0,-3.885 -2.536,-7.033 -6.753,-7.033 -4.667,0 -6.534,3.633 -6.534,6.734 0,3.151 1.961,6.733 6.693,6.733 C -2.427,6.434 0,3.817 0,0 m -2.352,-0.619 c 0,3.834 -2.001,6.256 -4.7,6.256 -2.001,0 -3.945,-1.516 -3.945,-5.418 0,-3.307 1.693,-6.395 4.702,-6.395 2.47,0 3.943,1.913 3.943,5.557"
               id="path53667"
               style="fill:#ffffff;fill-opacity:1;fill-rule:nonzero;stroke:none" /></g><g
             transform="translate(714.0079,562.0637)"
             id="g53669"><path
               d="M 0,0 C 0,-2.291 -0.879,-4.012 -1.813,-4.961 -2.58,-5.744 -4.146,-6.793 -7.229,-6.793 l -6.455,0 0,0.418 c 1.117,0.035 1.571,0.002 1.673,0.936 0.079,0.71 0.06,2.628 0.06,3.486 l 0,3.348 c 0,2.531 -0.008,2.888 -0.039,3.425 -0.035,0.567 -0.17,0.836 -0.718,0.955 -0.133,0.029 -0.644,0.039 -0.876,0.039 l 0,0.401 5.277,0 c 2.083,0 4.856,0.004 6.674,-1.893 C -0.801,3.451 0,2.063 0,0 m -2.231,-0.6 c 0,4.212 -2.665,6.038 -6.392,6.038 -0.348,0 -0.877,-0.055 -1.018,-0.12 -0.154,-0.072 -0.195,-0.17 -0.199,-0.359 -0.012,-0.588 -0.038,-2 -0.038,-3.367 l 0,-4.82 c 0,-1.767 0.102,-2.136 0.337,-2.372 0.279,-0.275 0.848,-0.537 2.051,-0.537 3.596,0 5.259,1.85 5.259,5.537"
               id="path53671"
               style="fill:#ffffff;fill-opacity:1;fill-rule:nonzero;stroke:none" /></g></g></g></g></g></svg>