<svg width="800" height="479" viewBox="0 0 800 479" fill="none" xmlns="http://www.w3.org/2000/svg">
<g clip-path="url(#clip0)">
<path d="M172.431 272.08L139.95 176.441C138.145 171.228 141.955 165.815 147.168 165.815H575.238C580.451 165.815 584.06 171.028 582.456 176.241L550.576 273.083" fill="#E8E8E8"/>
<path d="M174.236 277.895L141.955 182.456C140.15 177.243 143.96 171.83 148.972 171.83H572.632C577.644 171.83 581.253 177.043 579.85 182.256L548.371 279.098" fill="#CCCCCC"/>
<path d="M567.218 191.278L547.368 264.461C547.168 265.263 546.366 265.865 545.564 265.865H178.647C177.845 265.865 177.043 265.263 176.842 264.461L154.185 190.276C153.784 189.073 154.787 187.669 155.99 187.669L565.414 188.672C566.617 188.672 567.619 190.075 567.218 191.278Z" fill="#202040"/>
<path d="M567.218 191.278L564.211 201.905H157.794L154.185 190.276C153.784 189.073 154.787 187.669 155.99 187.669L565.414 188.672C566.617 188.672 567.619 190.075 567.218 191.278Z" fill="#202040"/>
<path opacity="0.5" d="M547.368 212.13L534.135 255.439C533.935 256.241 533.333 256.842 532.531 256.842L188.471 258.246C187.669 258.246 187.068 257.644 186.867 256.842L172.231 212.331C171.83 211.128 172.632 209.724 173.835 209.724L545.764 209.524C546.967 209.524 547.769 210.927 547.368 212.13Z" fill="white"/>
<path d="M547.368 212.13L534.135 255.439C533.935 256.241 533.333 256.842 532.531 256.842L188.471 258.246C187.669 258.246 187.068 257.644 186.867 256.842L172.231 212.331C171.83 211.128 172.632 209.724 173.835 209.724L545.764 209.524C546.967 209.524 547.769 210.927 547.368 212.13Z" fill="white"/>
<path d="M173.835 202.105C175.939 202.105 177.644 200.4 177.644 198.296C177.644 196.192 175.939 194.486 173.835 194.486C171.731 194.486 170.025 196.192 170.025 198.296C170.025 200.4 171.731 202.105 173.835 202.105Z" fill="#FF6363"/>
<path d="M198.496 202.105C200.6 202.105 202.306 200.4 202.306 198.296C202.306 196.192 200.6 194.486 198.496 194.486C196.392 194.486 194.687 196.192 194.687 198.296C194.687 200.4 196.392 202.105 198.496 202.105Z" fill="#52C14F"/>
<path d="M186.266 202.105C188.37 202.105 190.075 200.4 190.075 198.296C190.075 196.192 188.37 194.486 186.266 194.486C184.162 194.486 182.456 196.192 182.456 198.296C182.456 200.4 184.162 202.105 186.266 202.105Z" fill="#FFBD69"/>
<path d="M457.143 248.421H368.922V252.431H457.143V248.421Z" fill="#FF6363"/>
<path d="M501.253 248.421H491.228V252.431H501.253V248.421Z" fill="#FFBD69"/>
<path d="M364.912 248.421H354.887V252.431H364.912V248.421Z" fill="#202040"/>
<path d="M340.251 249.223H288.12V253.233H340.251V249.223Z" fill="#FF6363"/>
<path d="M339.649 231.779H327.619V235.789H339.649V231.779Z" fill="#FFBD69"/>
<path d="M432.481 240H380.351V244.01H432.481V240Z" fill="#FFBD69"/>
<path d="M392.381 231.378H382.356V235.388H392.381V231.378Z" fill="#202040"/>
<path d="M253.634 221.754H245.614V225.764H253.634V221.754Z" fill="#FFBD69"/>
<path d="M241.604 221.754H233.584V225.764H241.604V221.754Z" fill="#FFBD69"/>
<path d="M229.574 221.754H221.554V225.764H229.574V221.754Z" fill="#FFBD69"/>
<path d="M412.431 231.378H398.396V235.388H412.431V231.378Z" fill="#202040"/>
<path d="M284.11 249.223H274.085V253.233H284.11V249.223Z" fill="#202040"/>
<path d="M209.724 249.223H199.699V253.233H209.724V249.223Z" fill="#202040"/>
<path d="M378.346 231.378H368.321V235.388H378.346V231.378Z" fill="#202040"/>
<path d="M311.779 239.799H287.719V243.809H311.779V239.799Z" fill="#202040"/>
<path d="M265.865 249.223H213.734V253.233H265.865V249.223Z" fill="#FF6363"/>
<path d="M279.699 239.799H197.494V243.809H279.699V239.799Z" fill="#202040"/>
<path d="M321.604 231.779H193.283V235.789H321.604V231.779Z" fill="#FFBD69"/>
<path d="M207.92 214.737L215.539 218.947V220.351L207.92 224.561V222.356L212.932 219.749L207.92 217.143V214.737Z" fill="#FFBD69"/>
<path d="M200.702 225.764H198.897L204.712 213.534H206.516L200.702 225.764Z" fill="#FFBD69"/>
<path d="M197.093 224.561L189.474 220.351V218.947L197.093 214.737V216.942L192.08 219.549L197.093 222.155V224.561Z" fill="#FFBD69"/>
<path d="M543.96 478.596H180.251C175.84 478.596 172.231 474.987 172.231 470.576V287.719C172.231 283.308 175.84 279.699 180.251 279.699H544.16C548.571 279.699 552.18 283.308 552.18 287.719V470.576C551.98 474.987 548.571 478.596 543.96 478.596Z" fill="#CCCCCC"/>
<path d="M544.561 474.185H181.253C176.842 474.185 173.233 470.576 173.233 466.165V284.11C173.233 279.699 176.842 276.09 181.253 276.09H544.561C548.972 276.09 552.581 279.699 552.581 284.11V466.165C552.581 470.576 548.972 474.185 544.561 474.185Z" fill="white" stroke="#BFBFBF" stroke-width="0.5" stroke-miterlimit="10"/>
<path d="M209.925 302.957H189.273V320.802H209.925V302.957Z" fill="#CCCCCC"/>
<path d="M228.772 329.023H189.073V346.867H228.772V329.023Z" fill="#CCCCCC"/>
<path d="M209.925 355.088H189.273V372.932H209.925V355.088Z" fill="#CCCCCC"/>
<path d="M209.925 381.153H189.273V398.997H209.925V381.153Z" fill="#CCCCCC"/>
<path d="M239.799 302.957H219.148V320.802H239.799V302.957Z" fill="#CCCCCC"/>
<path d="M239.799 355.088H219.148V372.932H239.799V355.088Z" fill="#CCCCCC"/>
<path d="M239.799 381.153H219.148V398.997H239.799V381.153Z" fill="#CCCCCC"/>
<path d="M269.674 302.957H249.023V320.802H269.674V302.957Z" fill="#CCCCCC"/>
<path d="M257.644 329.023H236.992V346.867H257.644V329.023Z" fill="#CCCCCC"/>
<path d="M287.519 329.023H266.867V346.867H287.519V329.023Z" fill="#CCCCCC"/>
<path d="M317.393 329.023H296.742V346.867H317.393V329.023Z" fill="#CCCCCC"/>
<path d="M347.268 329.023H326.617V346.867H347.268V329.023Z" fill="#CCCCCC"/>
<path d="M376.942 329.023H356.291V346.867H376.942V329.023Z" fill="#CCCCCC"/>
<path d="M406.817 329.023H386.165V346.867H406.817V329.023Z" fill="#CCCCCC"/>
<path d="M436.692 329.023H416.04V346.867H436.692V329.023Z" fill="#CCCCCC"/>
<path d="M466.566 329.023H445.915V346.867H466.566V329.023Z" fill="#CCCCCC"/>
<path d="M507.268 329.023H475.789V346.867H507.268V329.023Z" fill="#CCCCCC"/>
<path d="M269.674 355.088H249.023V372.932H269.674V355.088Z" fill="#CCCCCC"/>
<path d="M269.674 381.153H249.023V398.997H269.674V381.153Z" fill="#CCCCCC"/>
<path d="M299.549 302.957H278.897V320.802H299.549V302.957Z" fill="#CCCCCC"/>
<path d="M299.549 355.088H278.897V372.932H299.549V355.088Z" fill="#CCCCCC"/>
<path d="M299.549 381.153H278.897V398.997H299.549V381.153Z" fill="#CCCCCC"/>
<path d="M329.223 302.957H308.571V320.802H329.223V302.957Z" fill="#CCCCCC"/>
<path d="M329.223 355.088H308.571V372.932H329.223V355.088Z" fill="#CCCCCC"/>
<path d="M329.223 381.153H308.571V398.997H329.223V381.153Z" fill="#CCCCCC"/>
<path d="M359.098 302.957H338.446V320.802H359.098V302.957Z" fill="#CCCCCC"/>
<path d="M359.098 355.088H338.446V372.932H359.098V355.088Z" fill="#CCCCCC"/>
<path d="M389.774 381.153H338.446V398.997H389.774V381.153Z" fill="#CCCCCC"/>
<path d="M388.972 302.957H368.321V320.802H388.972V302.957Z" fill="#CCCCCC"/>
<path d="M405.815 355.088H368.321V372.932H405.815V355.088Z" fill="#CCCCCC"/>
<path d="M418.847 302.957H398.195V320.802H418.847V302.957Z" fill="#CCCCCC"/>
<path d="M418.847 381.153H398.195V398.997H418.847V381.153Z" fill="#CCCCCC"/>
<path d="M448.521 302.957H427.87V320.802H448.521V302.957Z" fill="#CCCCCC"/>
<path d="M448.722 355.088H415.84V372.932H448.722V355.088Z" fill="#CCCCCC"/>
<path d="M448.521 381.153H427.87V398.997H448.521V381.153Z" fill="#CCCCCC"/>
<path d="M478.396 302.957H457.744V320.802H478.396V302.957Z" fill="#CCCCCC"/>
<path d="M478.396 355.088H457.744V372.932H478.396V355.088Z" fill="#CCCCCC"/>
<path d="M478.396 381.153H457.744V398.997H478.396V381.153Z" fill="#CCCCCC"/>
<path d="M508.271 302.957H487.619V320.802H508.271V302.957Z" fill="#CCCCCC"/>
<path d="M508.271 355.088H487.619V372.932H508.271V355.088Z" fill="#CCCCCC"/>
<path d="M508.271 381.153H487.619V398.997H508.271V381.153Z" fill="#CCCCCC"/>
<path d="M538.145 354.887H517.494V398.797H538.145V354.887Z" fill="#CCCCCC"/>
<path d="M538.145 302.957H517.494V347.068H538.145V302.957Z" fill="#CCCCCC"/>
<path d="M394.987 462.957H330.627C326.416 462.957 323.008 459.549 323.008 455.338V420.451C323.008 416.241 326.416 412.832 330.627 412.832H394.987C399.198 412.832 402.607 416.241 402.607 420.451V455.338C402.607 459.549 399.198 462.957 394.987 462.957Z" fill="#E6E6E6"/>
<path d="M10.0251 468.371L5.01255 477.794L0.200516 468.371" fill="#F6F8FA"/>
<path d="M5.01253 478.195L0 468.571L0.401003 468.371L5.01253 477.393L9.82456 468.371L10.0251 468.571L5.01253 478.195Z" fill="#C1C1C1"/>
<path d="M6.01504 476.19L5.01253 478.195L4.01003 476.19" fill="#202040"/>
<path d="M3.00752 376.742H7.21804C8.82205 376.742 10.0251 378.145 10.0251 379.749V384.16H0V379.749C0 377.945 1.40351 376.742 3.00752 376.742Z" fill="#FF6363"/>
<path d="M10.0251 384.16H0V468.571H10.0251V384.16Z" fill="#202040"/>
<path opacity="0.8" d="M10.0251 384.16H0V387.569H10.0251V384.16Z" fill="white"/>
<path d="M116.09 428.872H106.266V451.93H116.09V428.872Z" fill="#52C14F"/>
<path d="M116.09 399.198H106.266V422.256H116.09V399.198Z" fill="#522D5B"/>
<path d="M116.09 369.524H106.266V392.581H116.09V369.524Z" fill="#202040"/>
<path d="M103.86 478.596H17.0426V346.466H103.86C106.065 346.466 107.87 348.271 107.87 350.476V474.586C107.87 476.792 106.065 478.596 103.86 478.596Z" fill="#FF6363"/>
<path opacity="0.3" d="M33.4837 346.466H17.0426V478.596H33.4837V346.466Z" fill="black"/>
<path opacity="0.8" d="M93.0326 346.466H84.812V478.596H93.0326V346.466Z" fill="white"/>
<g opacity="0.9">
<path opacity="0.5" d="M465.764 239.398H352.882C350.677 239.398 348.872 237.594 348.872 235.388V52.1303C348.872 49.9248 350.677 48.1202 352.882 48.1202H465.764C467.97 48.1202 469.774 49.9248 469.774 52.1303V235.388C469.774 237.594 467.97 239.398 465.764 239.398Z" fill="white" stroke="#BFBFBF" stroke-width="0.5" stroke-miterlimit="10"/>
<path opacity="0.5" d="M455.338 228.972H364.511C362.306 228.972 360.501 227.168 360.501 224.962V87.4185C360.501 85.213 362.306 83.4084 364.511 83.4084H455.338C457.544 83.4084 459.348 85.213 459.348 87.4185V225.163C459.348 227.168 457.544 228.972 455.338 228.972Z" fill="white"/>
<path opacity="0.9" d="M455.338 228.972H364.511C362.306 228.972 360.501 227.168 360.501 224.962V87.4185C360.501 85.213 362.306 83.4084 364.511 83.4084H455.338C457.544 83.4084 459.348 85.213 459.348 87.4185V225.163C459.348 227.168 457.544 228.972 455.338 228.972Z" fill="#202040"/>
<path opacity="0.9" d="M469.774 72.9824H348.872V52.1303C348.872 49.9248 350.677 48.1202 352.882 48.1202H465.764C467.97 48.1202 469.774 49.9248 469.774 52.1303V72.9824Z" fill="#522D5B"/>
<path opacity="0.9" d="M451.529 190.075H382.957V195.288H451.529V190.075Z" fill="#FF6363"/>
<path opacity="0.9" d="M451.529 203.108H441.103V208.321H451.529V203.108Z" fill="#FFBD69"/>
<path opacity="0.9" d="M378.747 190.075H368.321V195.288H378.747V190.075Z" fill="#FFBD69"/>
<path opacity="0.9" d="M437.694 177.043H382.957V182.256H437.694V177.043Z" fill="#FF6363"/>
<path opacity="0.9" d="M451.529 119.699H441.103V124.912H451.529V119.699Z" fill="#FFBD69"/>
<path opacity="0.9" d="M423.058 203.108H368.321V208.321H423.058V203.108Z" fill="#FFBD69"/>
<path opacity="0.9" d="M451.529 145.764H430.677V150.977H451.529V145.764Z" fill="#FF6363"/>
<path opacity="0.9" d="M399.599 145.764H386.566V150.977H399.599V145.764Z" fill="#FF6363"/>
<path opacity="0.9" d="M451.529 104.06H441.103V109.273H451.529V104.06Z" fill="#FFBD69"/>
<path opacity="0.9" d="M436.09 104.06H425.664V109.273H436.09V104.06Z" fill="#FFBD69"/>
<path opacity="0.9" d="M420.451 104.06H410.025V109.273H420.451V104.06Z" fill="#FFBD69"/>
<path opacity="0.9" d="M425.664 145.764H407.419V150.977H425.664V145.764Z" fill="#FF6363"/>
<path opacity="0.9" d="M378.747 177.043H368.321V182.256H378.747V177.043Z" fill="#FFBD69"/>
<path opacity="0.9" d="M378.747 161.403H368.321V166.616H378.747V161.403Z" fill="#FFBD69"/>
<path opacity="0.9" d="M381.353 145.764H368.321V150.977H381.353V145.764Z" fill="#FF6363"/>
<path opacity="0.9" d="M437.694 161.403H382.957V166.616H437.694V161.403Z" fill="#FF6363"/>
<path opacity="0.9" d="M451.529 132.732H368.321V137.945H451.529V132.732Z" fill="#FFBD69"/>
<path opacity="0.9" d="M433.283 119.699H368.321V124.912H433.283V119.699Z" fill="#FFBD69"/>
<path opacity="0.9" d="M392.18 95.0375L402.005 100.451V102.256L392.18 107.669V104.662L398.797 101.253L392.18 97.8446V95.0375Z" fill="#FFBD69"/>
<path opacity="0.9" d="M382.757 109.273H380.551L388.17 93.4335H390.376L382.757 109.273Z" fill="#FFBD69"/>
<path opacity="0.9" d="M378.145 107.87L368.321 102.456V100.652L378.145 95.238V98.2456L371.529 101.654L378.145 105.063V107.87Z" fill="#FFBD69"/>
<path opacity="0.9" d="M364.11 65.9649C366.768 65.9649 368.922 63.8105 368.922 61.1528C368.922 58.4952 366.768 56.3408 364.11 56.3408C361.453 56.3408 359.298 58.4952 359.298 61.1528C359.298 63.8105 361.453 65.9649 364.11 65.9649Z" fill="#FF6363"/>
<path opacity="0.9" d="M394.787 65.9649C397.445 65.9649 399.599 63.8105 399.599 61.1528C399.599 58.4952 397.445 56.3408 394.787 56.3408C392.129 56.3408 389.975 58.4952 389.975 61.1528C389.975 63.8105 392.129 65.9649 394.787 65.9649Z" fill="#52C14F"/>
<path opacity="0.9" d="M379.348 65.9649C382.006 65.9649 384.16 63.8105 384.16 61.1528C384.16 58.4952 382.006 56.3408 379.348 56.3408C376.691 56.3408 374.536 58.4952 374.536 61.1528C374.536 63.8105 376.691 65.9649 379.348 65.9649Z" fill="#FFBD69"/>
</g>
<g opacity="0.9">
<path opacity="0.5" d="M294.536 187.87H38.0952C35.8897 187.87 34.0852 186.065 34.0852 183.86V12.03C34.0852 9.82453 35.8897 8.02002 38.0952 8.02002H294.536C296.742 8.02002 298.546 9.82453 298.546 12.03V183.86C298.546 186.065 296.742 187.87 294.536 187.87Z" fill="white" stroke="#BFBFBF" stroke-width="0.5" stroke-miterlimit="10"/>
<path opacity="0.5" d="M280.501 174.035H54.9373C52.7318 174.035 50.9273 172.231 50.9273 170.025V59.7493C50.9273 57.5438 52.7318 55.7393 54.9373 55.7393H280.501C282.707 55.7393 284.511 57.5438 284.511 59.7493V170.025C284.511 172.231 282.707 174.035 280.501 174.035Z" fill="white"/>
<path opacity="0.9" d="M280.501 174.035H54.9373C52.7318 174.035 50.9273 172.231 50.9273 170.025V59.7493C50.9273 57.5438 52.7318 55.7393 54.9373 55.7393H280.501C282.707 55.7393 284.511 57.5438 284.511 59.7493V170.025C284.511 172.231 282.707 174.035 280.501 174.035Z" fill="#202040"/>
<path opacity="0.9" d="M298.546 42.3057H34.0852V12.03C34.0852 9.82453 35.8897 8.02002 38.0952 8.02002H294.536C296.742 8.02002 298.546 9.82453 298.546 12.03V42.3057Z" fill="#522D5B"/>
<path opacity="0.9" d="M199.699 158.797H77.193V164.411H199.699V158.797Z" fill="#FF6363"/>
<path opacity="0.9" d="M260.852 158.797H247.018V164.411H260.852V158.797Z" fill="#FFBD69"/>
<path opacity="0.9" d="M71.5789 158.797H57.7444V164.411H71.5789V158.797Z" fill="#FFBD69"/>
<path opacity="0.9" d="M149.574 144.762H77.193V150.376H149.574V144.762Z" fill="#FF6363"/>
<path opacity="0.9" d="M241.404 116.892H169.023V122.506H241.404V116.892Z" fill="#FF6363"/>
<path opacity="0.9" d="M260.852 89.223H244.21V94.837H260.852V89.223Z" fill="#FFBD69"/>
<path opacity="0.9" d="M261.053 144.762H188.672V150.376H261.053V144.762Z" fill="#FFBD69"/>
<path opacity="0.9" d="M146.767 116.892H124.511V122.506H146.767V116.892Z" fill="#FF6363"/>
<path opacity="0.9" d="M91.0276 116.892H77.193V122.506H91.0276V116.892Z" fill="#FF6363"/>
<path opacity="0.9" d="M149.774 77.995H138.546V83.609H149.774V77.995Z" fill="#FFBD69"/>
<path opacity="0.9" d="M132.932 77.995H121.704V83.609H132.932V77.995Z" fill="#FFBD69"/>
<path opacity="0.9" d="M116.291 77.995H105.063V83.609H116.291V77.995Z" fill="#FFBD69"/>
<path opacity="0.9" d="M118.897 116.892H99.4486V122.506H118.897V116.892Z" fill="#FF6363"/>
<path opacity="0.9" d="M71.5789 144.762H57.7444V150.376H71.5789V144.762Z" fill="#FFBD69"/>
<path opacity="0.9" d="M71.5789 130.927H57.7444V136.541H71.5789V130.927Z" fill="#FFBD69"/>
<path opacity="0.9" d="M71.5789 116.892H57.7444V122.506H71.5789V116.892Z" fill="#FF6363"/>
<path opacity="0.9" d="M216.541 103.058H183.058V108.672H216.541V103.058Z" fill="#FFBD69"/>
<path opacity="0.9" d="M149.574 130.927H77.193V136.541H149.574V130.927Z" fill="#FF6363"/>
<path opacity="0.9" d="M171.83 103.058H57.7444V108.672H171.83V103.058Z" fill="#FFBD69"/>
<path opacity="0.9" d="M235.789 89.223H57.7444V94.837H235.789V89.223Z" fill="#FFBD69"/>
<path opacity="0.9" d="M50.9273 32.2807C54.803 32.2807 57.9448 29.0491 57.9448 25.0627C57.9448 21.0762 54.803 17.8446 50.9273 17.8446C47.0516 17.8446 43.9098 21.0762 43.9098 25.0627C43.9098 29.0491 47.0516 32.2807 50.9273 32.2807Z" fill="#FF6363"/>
<path opacity="0.9" d="M95.4386 32.2807C99.3143 32.2807 102.456 29.0491 102.456 25.0627C102.456 21.0762 99.3143 17.8446 95.4386 17.8446C91.5629 17.8446 88.4211 21.0762 88.4211 25.0627C88.4211 29.0491 91.5629 32.2807 95.4386 32.2807Z" fill="#52C14F"/>
<path opacity="0.9" d="M73.1829 32.2807C77.0586 32.2807 80.2005 29.0491 80.2005 25.0627C80.2005 21.0762 77.0586 17.8446 73.1829 17.8446C69.3073 17.8446 66.1654 21.0762 66.1654 25.0627C66.1654 29.0491 69.3073 32.2807 73.1829 32.2807Z" fill="#FFBD69"/>
<path opacity="0.9" d="M86.015 68.3709L96.6416 74.1854V76.1905L86.015 82.005V78.797L93.0326 75.188L86.015 71.3784V68.3709Z" fill="#FFBD69"/>
<path opacity="0.9" d="M75.99 83.609H73.5839L81.604 66.5664H84.01L75.99 83.609Z" fill="#FFBD69"/>
<path opacity="0.9" d="M71.1779 82.005L60.5514 76.1905V74.1854L71.1779 68.3709V71.5789L64.1604 75.188L71.1779 78.797V82.005Z" fill="#FFBD69"/>
</g>
<g opacity="0.9">
<path opacity="0.5" d="M597.093 134.937H491.228C489.023 134.937 487.218 133.133 487.218 130.927V34.0852C487.218 31.8796 489.023 30.0751 491.228 30.0751H597.093C599.298 30.0751 601.103 31.8796 601.103 34.0852V130.927C601.103 133.133 599.298 134.937 597.093 134.937Z" fill="white" stroke="#BFBFBF" stroke-width="0.5" stroke-miterlimit="10"/>
<path opacity="0.5" d="M587.268 126.316H502.256C500.05 126.316 498.246 124.511 498.246 122.306V65.9649C498.246 63.7593 500.05 61.9548 502.256 61.9548H587.268C589.474 61.9548 591.278 63.7593 591.278 65.9649V122.306C591.278 124.511 589.474 126.316 587.268 126.316Z" fill="white"/>
<path opacity="0.9" d="M587.268 126.316H502.256C500.05 126.316 498.246 124.511 498.246 122.306V65.9649C498.246 63.7593 500.05 61.9548 502.256 61.9548H587.268C589.474 61.9548 591.278 63.7593 591.278 65.9649V122.306C591.278 124.511 589.474 126.316 587.268 126.316Z" fill="#202040"/>
<path opacity="0.9" d="M601.103 52.9323H487.218V34.0852C487.218 31.8796 489.023 30.0751 491.228 30.0751H597.093C599.298 30.0751 601.103 31.8796 601.103 34.0852V52.9323Z" fill="#522D5B"/>
<path opacity="0.9" d="M580.05 84.6115H571.228V88.421H580.05V84.6115Z" fill="#FFBD69"/>
<path opacity="0.9" d="M579.85 103.659H562.406V107.469H579.85V103.659Z" fill="#FF6363"/>
<path opacity="0.9" d="M532.732 103.659H523.308V107.469H532.732V103.659Z" fill="#FF6363"/>
<path opacity="0.9" d="M570.827 73.3834H563.208V77.1929H570.827V73.3834Z" fill="#FFBD69"/>
<path opacity="0.9" d="M559.398 73.3834H551.779V77.1929H559.398V73.3834Z" fill="#FFBD69"/>
<path opacity="0.9" d="M547.97 73.3834H540.351V77.1929H547.97V73.3834Z" fill="#FFBD69"/>
<path opacity="0.9" d="M551.779 103.659H538.546V107.469H551.779V103.659Z" fill="#FF6363"/>
<path opacity="0.9" d="M517.694 115.088H510.075V118.897H517.694V115.088Z" fill="#FFBD69"/>
<path opacity="0.9" d="M519.499 103.659H510.075V107.469H519.499V103.659Z" fill="#FF6363"/>
<path opacity="0.9" d="M568.221 115.088H522.306V118.897H568.221V115.088Z" fill="#FFBD69"/>
<path opacity="0.9" d="M579.85 94.2355H510.075V98.0451H579.85V94.2355Z" fill="#FF6363"/>
<path opacity="0.9" d="M557.594 84.6115H510.075V88.421H557.594V84.6115Z" fill="#FFBD69"/>
<path opacity="0.9" d="M527.318 66.7668L534.536 70.7769V72.1804L527.318 76.1904V73.9849L532.13 71.3784L527.318 68.7719V66.7668Z" fill="#FFBD69"/>
<path opacity="0.9" d="M520.501 77.1929H518.897L524.311 65.5638H525.915L520.501 77.1929Z" fill="#FFBD69"/>
<path opacity="0.9" d="M517.293 75.9899L510.075 71.9799V70.5764L517.293 66.5663V68.7719L512.481 71.3784L517.293 73.9849V75.9899Z" fill="#FFBD69"/>
<path opacity="0.9" d="M501.053 46.7167C503.489 46.7167 505.464 44.7418 505.464 42.3057C505.464 39.8695 503.489 37.8947 501.053 37.8947C498.616 37.8947 496.642 39.8695 496.642 42.3057C496.642 44.7418 498.616 46.7167 501.053 46.7167Z" fill="#FF6363"/>
<path opacity="0.9" d="M529.925 46.7167C532.361 46.7167 534.336 44.7418 534.336 42.3057C534.336 39.8695 532.361 37.8947 529.925 37.8947C527.489 37.8947 525.514 39.8695 525.514 42.3057C525.514 44.7418 527.489 46.7167 529.925 46.7167Z" fill="#52C14F"/>
<path opacity="0.9" d="M515.489 46.7167C517.925 46.7167 519.9 44.7418 519.9 42.3057C519.9 39.8695 517.925 37.8947 515.489 37.8947C513.053 37.8947 511.078 39.8695 511.078 42.3057C511.078 44.7418 513.053 46.7167 515.489 46.7167Z" fill="#FFBD69"/>
</g>
<path d="M657.644 385.363C688.207 385.363 712.982 360.588 712.982 330.025C712.982 299.463 688.207 274.687 657.644 274.687C627.082 274.687 602.306 299.463 602.306 330.025C602.306 360.588 627.082 385.363 657.644 385.363Z" fill="#FF6363"/>
<path opacity="0.3" d="M712.381 321.203C717.193 351.479 697.945 379.549 667.669 384.561C576.441 316.19 660.451 324.612 644.612 298.346C638.596 288.521 614.737 330.827 645.013 326.015C673.083 321.404 667.87 332.632 692.13 298.947C692.932 297.945 706.366 311.98 712.381 321.203Z" fill="black"/>
<g opacity="0.5">
<path opacity="0.5" d="M655.84 368.722C647.619 368.722 639.799 366.316 633.183 361.704C624.561 355.89 618.947 346.867 617.343 336.441C615.739 326.015 618.145 315.388 624.361 306.767C630.576 298.145 639.799 292.531 650.226 290.727C671.278 287.318 691.328 302.757 694.937 325.013C696.341 334.035 693.935 344.06 688.12 352.08C681.905 360.702 673.083 366.316 662.857 367.92C660.451 368.521 658.246 368.722 655.84 368.722ZM656.04 293.333C654.236 293.333 652.431 293.534 650.627 293.734C641.003 295.338 632.381 300.551 626.566 308.571C620.752 316.591 618.546 326.216 620.15 336.04C621.754 345.664 626.967 353.885 634.787 359.499C642.607 364.912 652.431 366.917 662.055 365.313C671.479 363.709 679.699 358.496 685.514 350.677C690.927 343.258 693.133 334.035 691.729 325.815C688.922 306.767 673.484 293.333 656.04 293.333Z" fill="black"/>
</g>
<path d="M682.506 309.173L680.301 306.165C679.298 304.561 679.499 302.556 681.103 301.353L692.331 293.133C693.935 292.13 695.94 292.331 697.143 293.935L699.348 296.942C700.351 298.546 700.15 300.551 698.546 301.754L687.318 309.975C685.714 311.178 683.509 310.777 682.506 309.173Z" fill="#E7D9D0"/>
<path d="M656.441 363.308C674.823 363.308 689.724 348.407 689.724 330.025C689.724 311.643 674.823 296.742 656.441 296.742C638.059 296.742 623.158 311.643 623.158 330.025C623.158 348.407 638.059 363.308 656.441 363.308Z" fill="#60392B"/>
<path d="M656.441 368.521C637.995 368.521 621.554 355.088 618.546 336.241C616.942 326.015 619.348 315.99 625.363 307.569C631.378 299.148 640.2 293.734 650.426 292.13C671.278 288.722 691.128 302.957 694.536 324.01C696.14 334.236 693.734 344.261 687.719 352.682C681.704 361.103 672.882 366.516 662.657 368.12C660.451 368.321 658.446 368.521 656.441 368.521ZM656.441 301.955C655.038 301.955 653.434 302.155 652.03 302.356C644.612 303.559 638.195 307.569 633.784 313.584C629.373 319.599 627.569 327.018 628.772 334.436C629.975 341.855 633.985 348.271 640 352.682C646.015 357.093 653.434 358.897 660.852 357.694C668.271 356.491 674.687 352.481 679.098 346.466C683.509 340.451 685.313 333.033 684.11 325.614C681.905 311.779 669.875 301.955 656.441 301.955Z" fill="#E7D9D0"/>
<path d="M704.361 321.404C702.757 322.807 700.351 322.406 698.947 320.802L694.536 315.388C693.133 313.784 693.534 311.378 695.138 309.975C696.742 308.571 699.148 308.972 700.551 310.576L704.962 315.99C706.165 317.594 705.965 320.201 704.361 321.404Z" fill="#FF6363"/>
<path d="M637.795 350.677C633.183 346.466 629.975 340.852 628.972 334.436C626.566 319.198 636.792 304.962 652.03 302.356C662.055 300.752 671.88 304.762 677.895 311.98C679.098 333.233 639.599 335.238 637.795 350.677Z" fill="#844F3A"/>
<path d="M713.183 476.19L676.09 440.301C672.882 437.293 672.882 432.08 675.89 428.872L748.672 353.885C751.679 350.677 756.892 350.677 760.1 353.684L797.193 389.574C800.401 392.581 800.401 397.795 797.394 401.003L724.612 475.99C721.404 479.198 716.391 479.398 713.183 476.19Z" fill="white" stroke="#BFBFBF" stroke-width="0.5" stroke-miterlimit="10"/>
<path d="M790.777 396.792C790.777 397.594 790.376 398.396 789.774 399.198L723.409 467.569C722.005 468.972 719.799 468.972 718.396 467.569L684.712 434.887C684.511 434.687 684.11 434.286 684.11 433.885C683.509 432.481 683.709 430.877 684.712 429.674L751.078 361.303C752.481 359.9 754.687 359.9 756.09 361.303L789.774 393.985C790.376 394.787 790.777 395.789 790.777 396.792Z" fill="#202040"/>
<path d="M782.305 380L770.363 368.411L769.246 369.562L781.188 381.151L782.305 380Z" fill="#202040"/>
<path opacity="0.1" d="M790.777 396.792L683.91 433.885C683.308 432.481 683.509 430.877 684.511 429.674L750.877 361.303C752.281 359.9 754.486 359.9 755.89 361.303L789.574 393.985C790.376 394.787 790.777 395.789 790.777 396.792Z" fill="white"/>
<path d="M520.1 284.712H487.419C484.411 284.712 482.206 282.306 482.206 279.499C482.206 276.491 484.612 274.286 487.419 274.286H520.1C523.108 274.286 525.313 276.692 525.313 279.499C525.514 282.306 523.108 284.712 520.1 284.712Z" fill="#969696"/>
<path d="M244.411 281.504H211.729C208.722 281.504 206.516 279.098 206.516 276.291C206.516 273.283 208.922 271.078 211.729 271.078H244.411C247.419 271.078 249.624 273.484 249.624 276.291C249.624 279.298 247.218 281.504 244.411 281.504Z" fill="#969696"/>
</g>
<defs>
<clipPath id="clip0">
<rect width="800" height="478.997" fill="white"/>
</clipPath>
</defs>
</svg>
