<svg viewBox="0 0 972.39 226.12" xmlns="http://www.w3.org/2000/svg"><g fill="#00561f"><path d="m745.08 103.55h-23.78c-5.73 0-10.12 1.44-14.66 6.68s-33.59 38.71-33.59 38.71v-45.39h-33v116a6.62 6.62 0 0 0 6.59 6.59h26.38v-55.6l29.09 45.46c4.34 6.79 8.64 10.14 18.53 10.14h27.1l-46.27-72.33z"/><path d="m605.58 103.55h-73.44v111.61c0 6.11 6 11 12.38 11h61.06a6.62 6.62 0 0 0 6.6-6.6v-15.85h-42.13a5 5 0 0 1 -4.95-5v-25.79h37.55v-22.39h-37.55v-24.53h47.08v-15.8a6.62 6.62 0 0 0 -6.6-6.6"/><path d="m837.6 103.55h-73.45v111.61c0 6.11 6 11 12.38 11h61.07a6.61 6.61 0 0 0 6.59-6.6v-15.85h-42.13a5 5 0 0 1 -4.94-5v-25.79h37.55v-22.39h-37.55v-24.53h47.07v-15.8a6.61 6.61 0 0 0 -6.59-6.6"/><path d="m370.16 103.55h-33v116a6.63 6.63 0 0 0 6.6 6.59h26.38z"/><path d="m300.56 103.55h-73.46v111.61c0 6.37 6.05 11 12.39 11h61.07a6.62 6.62 0 0 0 6.59-6.6v-15.85h-42.15a5 5 0 0 1 -4.94-5v-25.79h37.54v-22.39h-37.52v-24.53h47.07v-15.8a6.62 6.62 0 0 0 -6.59-6.6"/><path d="m193.8 103.55h-33v47h-28.8v-47h-38.27v4.82a8.72 8.72 0 0 1 5.27 8.22v109.53h33v-53.18h28.84v53.18h33z"/><path d="m498.83 103.55v116a6.62 6.62 0 0 1 -6.59 6.59h-20.24l-44.52-70.25a93.89 93.89 0 0 1 .92 13.14v57.11h-24.64v-122.59h16c8.16 0 14.1 3.37 18.37 10.09 3.63 5.7 37.29 58.67 37.29 58.67s-1.21-3.61-1.21-13.28v-55.48z"/><path d="m972.39 103.55v4.82a8.91 8.91 0 0 0 -5.23 8.22v102.94a6.59 6.59 0 0 1 -6.56 6.59h-20.21l-44.53-70.25a93.89 93.89 0 0 1 .92 13.14v57.11h-24.64v-122.57h16c8.15 0 14.1 3.37 18.37 10.09 3.63 5.7 37.28 58.67 37.28 58.67s-1.2-3.61-1.2-13.28v-55.48z"/></g><path d="m32.3 148.18a2 2 0 0 1 -3.18-2.28c.9-2.72 17.47-53.77 17.47-53.77l-45.72-33.22a2 2 0 0 1 1.21-3.72h56.51s16.59-51 17.46-53.74a2 2 0 0 1 3.92 0c.88 2.73 17.47 53.73 17.47 53.73s53.63 0 56.5 0a2 2 0 0 1 1.21 3.72l-27.27 19.83h-32.26l-10-30.67-10 30.67h-32.2l26.11 19-10 30.67z" fill="#e30613"/></svg>