<?xml version="1.0" encoding="utf-8"?>
<!-- Generator: Adobe Illustrator 19.0.0, SVG Export Plug-In . SVG Version: 6.00 Build 0)  -->
<svg version="1.1" id="Layer_1" xmlns="http://www.w3.org/2000/svg" xmlns:xlink="http://www.w3.org/1999/xlink" x="0px" y="0px"
	 viewBox="0 0 500 500" style="enable-background:new 0 0 500 500;" xml:space="preserve">
<style type="text/css">
	.st0{fill:#00519A;}
	.st1{fill:#FFFFFF;}
</style>
<g id="g2565">
	<path id="path2567" class="st0" d="M393.3,316.1l-1.3,0.5c-5.1,2-19.9,3.5-29.4,3.5c-8.9,0-20.7-3.3-27.6-12.5
		c-2.6-3.6-5.2-9.1-5.2-17h-9l-6.9,27.6h-23.4l8.2-27.6h-7.4l-17.8,27.6h-18.8l-1.7-27.6h-8.3l-8.2,27.6h-20l8.5-27.6H178v-0.4
		l-8.4,28.1h-21.3l8.3-27.7h-26l12.9,27.7h-24.6l-11.2-27.7H101c-4.2,13.6-7.5,24.6-7.7,25.4l-0.4,2.2H70l21-69.8v-68.7h78.6v67.9
		l3-10h5.4v-57.9h78.4v57.9h8.4v-57.9h78.4V253c2.6-3.6,5.5-6.5,8.4-8.7v-64.4H430v110.8h-29.6L393.3,316.1z M351.7,290.6
		c0,3.6,0.7,6.6,2.3,8.6c2.2,3,6.2,4.5,11.8,4.5c6.2,0,8.6-0.7,9.4-1l3.9-12.1H351.7"/>
	<path id="path2569" class="st1" d="M209.9,263.1c-2.5,7.6-6,11.5-17.3,11.8c-3.7,0-7.8,0-13.4,0l6.9-23.6
		C203,251.3,214.3,249.9,209.9,263.1z M113.2,240.5h-17l-22.5,74.9h16.8C90.9,313.9,113.2,240.5,113.2,240.5z M157.3,240.5h-20.6
		l-32.8,33.1l0,0l0,0h0h0l0,0h0l16.9,41.8h18.3l-18.9-40.3L157.3,240.5z M225.4,263.1c4.3-23.1-14.3-22.8-31.6-22.6h-19.1L152,315.5
		h15.4l8.8-29.6h12.3C212.6,285.9,223.2,275.2,225.4,263.1z M330.4,240.5h-24.6c-29.9,41.5-37.2,64.8-37.2,64.8
		c2.9-26.4-0.9-64.8-0.9-64.8h-24.4l-22.9,74.9h14.1l19-64.1l3.9,64.1h14.6l41.4-64.1l-19,64.1h17.3L330.4,240.5z M379.2,238.9
		c-15.1,0-33.8,3.4-44.5,38.8c-9,29.6,12.8,39.7,28,39.7c10,0,24.1-1.7,28.3-3.4l10.6-37.8h-31.8l-3.5,11.3H383l-5.2,16.4
		c0,0,0.7,2.6-11.9,2.6c-15.9,0-20.3-11-15.1-29.2c4.8-16.9,12.6-28.2,26.9-27.5c9.7,0.4,15.2,4.1,12.5,13c-0.1,0.6-0.2,1.4-0.5,1.9
		l15.4,0C409,253.2,401.2,238.9,379.2,238.9"/>
</g>
</svg>
